<?xml version="1.0" encoding="utf-8"?>
<!-- Generator: Adobe Illustrator 26.5.0, SVG Export Plug-In . SVG Version: 6.00 Build 0)  -->
<svg version="1.1" id="katman_1" xmlns="http://www.w3.org/2000/svg" xmlns:xlink="http://www.w3.org/1999/xlink" x="0px" y="0px"
	 viewBox="0 0 611.5 165.1" style="enable-background:new 0 0 611.5 165.1;" xml:space="preserve">
<style type="text/css">
	.st0{display:none;fill:#2F56A3;}
	.st1{fill:#2F56A3;}
	.st2{clip-path:url(#SVGID_00000066509245410583231300000014574975367552254604_);fill:#2F56A3;}
	.st3{clip-path:url(#SVGID_00000044137816139326859960000012089136396966912942_);fill:#2F56A3;}
	.st4{clip-path:url(#SVGID_00000073695343350621065900000008658782397639168698_);fill:#2F56A3;}
	.st5{clip-path:url(#SVGID_00000158723441483449621650000002553160412683158179_);fill:#2F56A3;}
	.st6{clip-path:url(#SVGID_00000077297576987571217410000003020531582338705831_);fill:#2F56A3;}
	.st7{clip-path:url(#SVGID_00000166658339999120401300000004393397431452581554_);fill:#2F56A3;}
	.st8{clip-path:url(#SVGID_00000081616530014655669910000011018623243123842193_);fill:#2F56A3;}
	.st9{clip-path:url(#SVGID_00000010312889850921460550000007659616886972812214_);fill:#2F56A3;}
	.st10{clip-path:url(#SVGID_00000158741795796143416240000014226637512498108579_);fill:#2F56A3;}
	.st11{clip-path:url(#SVGID_00000137827569238116823970000010179518376087660442_);fill:#2F56A3;}
	.st12{clip-path:url(#SVGID_00000044860736101353750380000003661177863643107754_);fill:#2F56A3;}
	.st13{clip-path:url(#SVGID_00000177445816475020455250000015388883886044360632_);fill:#2F56A3;}
	.st14{clip-path:url(#SVGID_00000039095644247213997780000009557413500084694962_);fill:#2F56A3;}
	.st15{clip-path:url(#SVGID_00000078007193195706476790000003407856031457418416_);fill:#2F56A3;}
	.st16{clip-path:url(#SVGID_00000183956144759199009440000017718683523490487201_);fill:#2F56A3;}
	.st17{clip-path:url(#SVGID_00000137094860606748512880000015022331441393730201_);fill:#2F56A3;}
	.st18{clip-path:url(#SVGID_00000061464205104485435580000012195223516588024486_);fill:#2F56A3;}
	.st19{clip-path:url(#SVGID_00000010287399577687439090000003972793683620472463_);fill:#2F56A3;}
	.st20{clip-path:url(#SVGID_00000181801773597551162170000010395535734012005796_);fill:#2F56A3;}
	.st21{clip-path:url(#SVGID_00000108290611858062341110000012637722360642006957_);fill:#2F56A3;}
	.st22{clip-path:url(#SVGID_00000084501837888256243920000002050042905497741731_);fill:#2F56A3;}
	.st23{clip-path:url(#SVGID_00000124874283196935502760000010239211671995295880_);fill:#2F56A3;}
	.st24{clip-path:url(#SVGID_00000063630398046734288900000012512018864438366629_);fill:#2F56A3;}
	.st25{clip-path:url(#SVGID_00000147925792945799168760000016633884697732327099_);fill:#2F56A3;}
	.st26{clip-path:url(#SVGID_00000031894649809294699540000005355968881501246096_);fill:#2F56A3;}
</style>
<polygon class="st0" points="26.4,58.8 25.3,59 22.1,60.4 18.6,61.7 15.4,63.6 12.1,65.5 9.2,67.7 6.5,70.1 3.5,72.5 1.1,75.2 
	0.8,75.5 0.5,75.8 0.5,76 0.3,76.6 0.3,76.8 0,77.1 0,77.4 0,77.9 0,110.8 0,111.6 0.3,112.2 0.5,113 1.1,113.5 1.6,114 2.4,114.3 
	3,114.6 3.8,114.6 26.7,114.6 27.5,114.6 28.3,114.3 28.8,114 29.4,113.5 29.9,113 30.2,112.2 30.5,111.6 30.5,110.8 30.5,62.6 
	30.5,61.5 30.2,60.7 29.7,59.9 28.8,59.3 28,59 27.2,58.8 "/>
<polygon class="st0" points="500.7,0 498.2,0.3 496.1,0.8 494.2,1.9 492.6,3.2 491,5.1 489.9,7 489.4,9.2 489.1,11.3 489.1,87.9 
	489.1,88.7 488.8,89.2 488.5,90.1 488,90.6 487.5,91.1 486.7,91.4 486.1,91.7 485.3,91.7 378.3,91.7 377.5,91.7 376.9,91.4 
	376.1,91.1 375.6,90.6 375,90.1 374.8,89.2 374.5,88.7 374.5,87.9 374.5,72.5 374.5,71.7 374.8,71.2 375,70.4 375.6,69.8 
	376.1,69.3 376.9,69 377.5,68.8 378.3,68.8 420.6,68.8 421.4,68.8 422.2,69 422.8,69.3 423.3,69.8 423.8,70.4 424.1,71.2 
	424.4,71.7 424.4,72.5 424.4,78.2 424.6,79 424.6,79.8 425.2,80.3 425.5,80.9 426.3,81.4 426.8,82 427.6,82 428.1,82.2 462.4,82.2 
	463.2,82 463.7,82 464.5,81.4 465.1,80.9 465.6,80.3 465.9,79.8 466.2,79 466.2,78.2 466.2,11.3 465.9,9.2 465.4,7 464.3,5.1 
	462.9,3.2 461,1.9 459.2,0.8 457,0.3 454.8,0 347,0 346.2,0.3 345.6,0.5 345.1,1.1 344.6,1.6 344.3,2.4 344,3 344,3.8 344,19.1 
	344,19.7 344.3,20.5 344.6,21.3 345.1,21.8 345.6,22.4 346.2,22.6 347,22.9 347.8,22.9 420.6,22.9 421.4,22.9 422.2,23.2 
	422.8,23.5 423.3,24 423.8,24.5 424.1,25.3 424.4,25.9 424.4,26.7 424.4,42.1 424.4,42.9 424.1,43.4 423.8,44.2 423.3,44.8 
	422.8,45.3 422.2,45.6 421.4,45.8 420.6,45.8 347.8,45.8 347,45.8 346.2,46.1 345.6,46.4 345.1,46.9 344.6,47.5 344.3,48.3 
	344,48.8 344,49.6 344,87.9 343.8,88.7 343.8,89.2 343.2,90.1 343,90.6 342.1,91.1 341.6,91.4 340.8,91.7 340,91.7 324.9,91.7 
	324.1,91.7 323.3,91.4 322.7,91.1 322.2,90.6 321.7,90.1 321.4,89.2 321.1,88.7 321.1,11.3 320.8,9.2 320,7 319,5.1 317.6,3.2 
	316,1.9 313.8,0.8 311.7,0.3 309.5,0 140.7,0 139.9,0.3 139.4,0.5 138.6,1.1 138.3,1.6 137.8,2.4 137.8,3 137.5,3.8 137.5,110.8 
	137.8,111.6 137.8,112.2 138.3,113 138.6,113.5 139.4,114 139.9,114.3 140.7,114.6 141.3,114.6 164.5,114.6 165,114.6 165.8,114.3 
	166.4,114 167.2,113.5 167.4,113 168,112.2 168,111.6 168.2,110.8 168.2,26.7 168.2,25.9 168.5,25.3 168.8,24.5 169.3,24 169.9,23.5 
	170.4,23.2 171.2,22.9 172,22.9 210.3,22.9 210.8,22.9 211.6,23.2 212.2,23.5 213,24 213.3,24.5 213.8,25.3 213.8,25.9 214.1,26.7 
	214.1,110.8 214.1,111.6 214.3,112.2 214.6,113 215.2,113.5 215.7,114 216.5,114.3 217,114.6 217.8,114.6 240.8,114.6 241.6,114.6 
	242.1,114.3 242.9,114 243.5,113.5 244,113 244.3,112.2 244.5,111.6 244.5,110.8 244.5,26.7 244.5,25.9 244.8,25.3 245.3,24.5 
	245.6,24 246.2,23.5 247,23.2 247.8,22.9 248.3,22.9 286.6,22.9 287.4,22.9 287.9,23.2 288.8,23.5 289.3,24 289.8,24.5 290.1,25.3 
	290.4,25.9 290.4,26.7 290.4,110.8 290.6,111.6 290.6,112.2 291.2,113 291.5,113.5 292.3,114 292.8,114.3 293.6,114.6 294.1,114.6 
	607.7,114.6 608.3,114.6 609.1,114.3 609.6,114 610.4,113.5 610.7,113 611.2,112.2 611.5,111.6 611.5,94.6 611.2,94.1 610.7,93.3 
	610.4,92.7 609.6,92.2 609.1,91.9 608.3,91.7 607.7,91.7 523.6,91.7 522.8,91.7 522,91.4 521.4,91.1 520.9,90.6 520.4,90.1 
	520.1,89.2 519.8,88.7 519.8,87.9 519.8,26.7 519.8,25.9 520.1,25.3 520.4,24.5 520.9,24 521.4,23.5 522,23.2 522.8,22.9 523.6,22.9 
	607.7,22.9 608.3,22.9 609.1,22.6 609.6,22.4 610.4,21.8 610.7,21.3 611.2,20.5 611.5,19.7 611.5,3 611.2,2.4 610.7,1.6 610.4,1.1 
	609.6,0.5 609.1,0.3 608.3,0 "/>
<polygon class="st0" points="76.3,32.6 76,31.8 75.5,31 75,30.5 74.1,29.9 73.3,29.7 72.5,29.7 71.4,29.9 67.9,31 64.4,32.6 
	60.9,34.2 57.7,36.4 54.7,38.6 51.8,41 49.1,43.7 46.6,46.6 46.6,46.9 46.4,47.2 46.1,47.5 46.1,47.7 46.1,48 45.8,48.3 45.8,48.8 
	45.8,49.1 45.8,110.8 45.8,111.6 46.1,112.2 46.6,113 46.9,113.5 47.5,114 48.3,114.3 49.1,114.6 49.6,114.6 72.5,114.6 73.3,114.6 
	74.1,114.3 74.7,114 75.2,113.5 75.8,113 76,112.2 76.3,111.6 76.6,110.8 76.6,33.4 "/>
<polygon class="st0" points="122.1,5.9 121.9,5.1 121.3,4.3 120.8,3.8 120,3.2 119.2,3 118.4,3 117.3,3.2 113.8,4.3 110.3,5.9 
	107,7.5 103.8,9.7 100.6,11.9 97.9,14.3 95.2,17 92.5,20 92.5,20.2 92.2,20.5 91.9,20.8 91.9,21 91.9,21.3 91.7,21.6 91.7,22.1 
	91.7,22.4 91.7,110.8 91.7,111.6 91.9,112.2 92.5,113 92.7,113.5 93.6,114 94.1,114.3 94.9,114.6 95.4,114.6 118.4,114.6 
	119.2,114.6 120,114.3 120.5,114 121.1,113.5 121.6,113 122.1,112.2 122.1,111.6 122.4,110.8 122.4,6.7 "/>
<polygon class="st1" points="21.2,131.7 12.8,150.6 4.4,131.7 0.1,131.7 0.1,155.8 4.1,155.8 4.1,139.3 11.4,155.8 14.2,155.8 
	21.5,139.3 21.5,155.8 25.5,155.8 25.5,131.7 "/>
<path class="st1" d="M45.2,150.9H35.1l-1.7,4.9h-4.1l8.6-24.1h4.6l8.6,24.1h-4.2L45.2,150.9z M44.1,147.7l-3.9-11.2l-3.9,11.2H44.1z
	"/>
<g>
	<g>
		<defs>
			<rect id="SVGID_1_" width="611.5" height="165.1"/>
		</defs>
		<clipPath id="SVGID_00000132067744970139340900000010623027316879008185_">
			<use xlink:href="#SVGID_1_"  style="overflow:visible;"/>
		</clipPath>
		<path style="clip-path:url(#SVGID_00000132067744970139340900000010623027316879008185_);fill:#2F56A3;" d="M55.1,137.4
			c1.1-1.9,2.6-3.3,4.5-4.4c1.9-1.1,3.9-1.6,6.2-1.6c2.6,0,4.8,0.6,6.8,1.9c2,1.3,3.4,3,4.3,5.4h-4.7c-0.6-1.3-1.5-2.2-2.6-2.8
			s-2.4-0.9-3.8-0.9c-1.6,0-3,0.4-4.3,1.1c-1.2,0.7-2.2,1.7-2.9,3.1c-0.7,1.3-1.1,2.9-1.1,4.7s0.4,3.3,1.1,4.7
			c0.7,1.3,1.7,2.4,2.9,3.1c1.2,0.7,2.7,1.1,4.3,1.1c1.5,0,2.7-0.3,3.8-0.9c1.1-0.6,2-1.6,2.6-2.8H77c-0.9,2.3-2.3,4.1-4.3,5.3
			s-4.3,1.9-6.8,1.9c-2.3,0-4.3-0.5-6.2-1.6s-3.4-2.5-4.4-4.4c-1.1-1.9-1.6-4-1.6-6.3C53.5,141.3,54,139.2,55.1,137.4"/>
	</g>
	<g>
		<defs>
			<rect id="SVGID_00000112610946297568370580000013283577808403528864_" width="611.5" height="165.1"/>
		</defs>
		<clipPath id="SVGID_00000159441070788700303080000011935849392583491478_">
			<use xlink:href="#SVGID_00000112610946297568370580000013283577808403528864_"  style="overflow:visible;"/>
		</clipPath>
		<path style="clip-path:url(#SVGID_00000159441070788700303080000011935849392583491478_);fill:#2F56A3;" d="M94.1,155.2
			c-1.3-0.6-2.3-1.4-3-2.4s-1.1-2.3-1.1-3.6h4.2c0.1,1,0.5,1.9,1.2,2.6c0.7,0.7,1.8,1,3.1,1c1.4,0,2.4-0.3,3.2-1
			c0.8-0.7,1.1-1.5,1.1-2.5c0-0.8-0.2-1.5-0.7-2s-1.1-0.9-1.8-1.2c-0.7-0.3-1.7-0.6-2.9-0.9c-1.6-0.4-2.8-0.8-3.8-1.3
			c-1-0.4-1.8-1.1-2.5-2s-1-2.1-1-3.6c0-1.4,0.3-2.6,1-3.6s1.7-1.8,2.9-2.4c1.2-0.6,2.7-0.8,4.3-0.8c2.3,0,4.2,0.6,5.7,1.7
			c1.5,1.2,2.3,2.8,2.5,4.8h-4.4c-0.1-0.9-0.5-1.6-1.2-2.3c-0.8-0.6-1.8-0.9-3-0.9c-1.1,0-2.1,0.3-2.8,0.9c-0.7,0.6-1.1,1.4-1.1,2.5
			c0,0.7,0.2,1.3,0.7,1.8s1,0.8,1.7,1.1s1.6,0.6,2.8,0.9c1.6,0.4,2.9,0.9,3.9,1.3c1,0.4,1.9,1.1,2.6,2s1.1,2.1,1.1,3.7
			c0,1.2-0.3,2.4-1,3.5s-1.6,2-2.9,2.6c-1.3,0.7-2.7,1-4.5,1C96.9,156,95.4,155.8,94.1,155.2"/>
	</g>
	<g>
		<defs>
			<rect id="SVGID_00000124136162409748597000000014819821651768239038_" width="611.5" height="165.1"/>
		</defs>
		<clipPath id="SVGID_00000154393872388897303020000008951494655846377901_">
			<use xlink:href="#SVGID_00000124136162409748597000000014819821651768239038_"  style="overflow:visible;"/>
		</clipPath>
		<path style="clip-path:url(#SVGID_00000154393872388897303020000008951494655846377901_);fill:#2F56A3;" d="M116.3,154.5
			c-1.9-1-3.4-2.5-4.5-4.4s-1.6-4-1.6-6.4s0.5-4.5,1.6-6.3c1.1-1.9,2.6-3.3,4.5-4.4c1.9-1,3.9-1.6,6.2-1.6c2.3,0,4.3,0.5,6.2,1.6
			s3.4,2.5,4.5,4.4s1.6,4,1.6,6.3c0,2.4-0.5,4.5-1.6,6.4s-2.6,3.3-4.5,4.4c-1.9,1.1-4,1.6-6.2,1.6
			C120.2,156,118.2,155.5,116.3,154.5 M126.7,151.5c1.2-0.7,2.2-1.8,2.9-3.1c0.7-1.4,1.1-2.9,1.1-4.7s-0.4-3.3-1.1-4.7
			c-0.7-1.3-1.7-2.4-2.9-3.1c-1.2-0.7-2.7-1.1-4.3-1.1c-1.6,0-3,0.4-4.3,1.1c-1.2,0.7-2.2,1.7-2.9,3.1c-0.7,1.3-1.1,2.9-1.1,4.7
			s0.4,3.3,1.1,4.7c0.7,1.3,1.7,2.4,2.9,3.1c1.2,0.7,2.7,1.1,4.3,1.1C124.1,152.6,125.5,152.2,126.7,151.5"/>
	</g>
	<g>
		<defs>
			<rect id="SVGID_00000095335509090104469700000003885521489014907792_" width="611.5" height="165.1"/>
		</defs>
		<clipPath id="SVGID_00000139285512563012359240000012667242853249631639_">
			<use xlink:href="#SVGID_00000095335509090104469700000003885521489014907792_"  style="overflow:visible;"/>
		</clipPath>
		<path style="clip-path:url(#SVGID_00000139285512563012359240000012667242853249631639_);fill:#2F56A3;" d="M156.1,138.6
			c-0.6-1.2-1.5-2.1-2.6-2.7c-1.1-0.6-2.4-0.9-3.8-0.9c-1.6,0-3,0.4-4.3,1.1c-1.2,0.7-2.2,1.7-2.9,3s-1.1,2.8-1.1,4.6
			c0,1.7,0.4,3.3,1.1,4.6c0.7,1.3,1.7,2.3,2.9,3.1c1.2,0.7,2.7,1.1,4.3,1.1c2.1,0,3.9-0.6,5.2-1.8s2.2-2.8,2.5-4.9h-9v-3.2h13.3v3.1
			c-0.3,1.9-0.9,3.6-2,5.2c-1.1,1.6-2.5,2.8-4.2,3.8s-3.6,1.4-5.7,1.4c-2.3,0-4.3-0.5-6.2-1.6s-3.4-2.5-4.5-4.4s-1.6-4-1.6-6.3
			c0-2.4,0.5-4.5,1.6-6.3c1.1-1.9,2.6-3.3,4.5-4.4c1.9-1.1,3.9-1.6,6.2-1.6c2.6,0,4.8,0.6,6.8,1.9s3.4,3,4.3,5.4h-4.8V138.6z
			 M153.2,128.8c-0.9,0.9-2.2,1.3-3.8,1.3s-2.9-0.4-3.8-1.3c-0.9-0.9-1.4-2.1-1.4-3.5v-0.7h2.3c0,0.8,0.2,1.5,0.7,1.9
			c0.4,0.4,1.2,0.6,2.3,0.6s1.8-0.2,2.3-0.6c0.4-0.4,0.7-1,0.7-1.9h2.3v0.8C154.7,126.7,154.2,127.9,153.2,128.8"/>
	</g>
	<g>
		<defs>
			<rect id="SVGID_00000079473532974624778210000004798773835277494415_" width="611.5" height="165.1"/>
		</defs>
		<clipPath id="SVGID_00000026122661533689483440000011124266569994394783_">
			<use xlink:href="#SVGID_00000079473532974624778210000004798773835277494415_"  style="overflow:visible;"/>
		</clipPath>
		<path style="clip-path:url(#SVGID_00000026122661533689483440000011124266569994394783_);fill:#2F56A3;" d="M169.3,131.7V147
			c0,1.8,0.5,3.2,1.4,4.1c1,0.9,2.3,1.4,4,1.4s3.1-0.5,4-1.4c1-0.9,1.4-2.3,1.4-4.1v-15.3h3.9V147c0,2-0.4,3.6-1.3,5
			c-0.9,1.4-2,2.4-3.4,3c-1.4,0.7-3,1-4.7,1s-3.3-0.3-4.7-1s-2.5-1.7-3.4-3c-0.8-1.4-1.2-3-1.2-5v-15.3H169.3z"/>
	</g>
	<g>
		<defs>
			<rect id="SVGID_00000093857208724939266010000011128812558471190407_" width="611.5" height="165.1"/>
		</defs>
		<clipPath id="SVGID_00000016757509887327951320000008698411592621242003_">
			<use xlink:href="#SVGID_00000093857208724939266010000011128812558471190407_"  style="overflow:visible;"/>
		</clipPath>
		<polygon style="clip-path:url(#SVGID_00000016757509887327951320000008698411592621242003_);fill:#2F56A3;" points="204.9,131.7 
			204.9,134.9 198.5,134.9 198.5,155.8 194.5,155.8 194.5,134.9 188.1,134.9 188.1,131.7 		"/>
	</g>
	<g>
		<defs>
			<rect id="SVGID_00000056423689806486586710000009887468062090865802_" width="611.5" height="165.1"/>
		</defs>
		<clipPath id="SVGID_00000181801717497274227510000009488061507917689265_">
			<use xlink:href="#SVGID_00000056423689806486586710000009887468062090865802_"  style="overflow:visible;"/>
		</clipPath>
		<polygon style="clip-path:url(#SVGID_00000181801717497274227510000009488061507917689265_);fill:#2F56A3;" points="234.2,131.7 
			234.2,155.8 230.3,155.8 230.3,139.3 222.9,155.8 220.2,155.8 212.8,139.3 212.8,155.8 208.9,155.8 208.9,131.7 213.1,131.7 
			221.6,150.6 230,131.7 		"/>
	</g>
	<g>
		<defs>
			<rect id="SVGID_00000052801778644821709330000005151396226797246346_" width="611.5" height="165.1"/>
		</defs>
		<clipPath id="SVGID_00000131329303689574573050000017036255510681416368_">
			<use xlink:href="#SVGID_00000052801778644821709330000005151396226797246346_"  style="overflow:visible;"/>
		</clipPath>
		<path style="clip-path:url(#SVGID_00000131329303689574573050000017036255510681416368_);fill:#2F56A3;" d="M253.9,150.9h-10.1
			l-1.7,4.9H238l8.6-24.1h4.6l8.6,24.1h-4.2L253.9,150.9z M252.8,147.7l-3.9-11.2l-3.9,11.2H252.8z"/>
	</g>
	<g>
		<defs>
			<rect id="SVGID_00000011745015949500318560000014255945974984001445_" width="611.5" height="165.1"/>
		</defs>
		<clipPath id="SVGID_00000106119746819229472270000010952710681193748867_">
			<use xlink:href="#SVGID_00000011745015949500318560000014255945974984001445_"  style="overflow:visible;"/>
		</clipPath>
		<path style="clip-path:url(#SVGID_00000106119746819229472270000010952710681193748867_);fill:#2F56A3;" d="M276.1,155.2
			c-1.3-0.6-2.3-1.4-3-2.4s-1.1-2.3-1.1-3.6h4.2c0.1,1,0.5,1.9,1.2,2.6c0.7,0.7,1.8,1,3.1,1c1.4,0,2.4-0.3,3.2-1
			c0.8-0.7,1.1-1.5,1.1-2.5c0-0.8-0.2-1.5-0.7-2s-1.1-0.9-1.8-1.2c-0.7-0.3-1.7-0.6-2.9-0.9c-1.6-0.4-2.8-0.8-3.8-1.3
			c-1-0.4-1.8-1.1-2.5-2s-1-2.1-1-3.6c0-1.4,0.3-2.6,1-3.6s1.7-1.8,2.9-2.4c1.2-0.6,2.7-0.8,4.3-0.8c2.3,0,4.2,0.6,5.7,1.7
			c1.5,1.2,2.3,2.8,2.5,4.8h-4.4c-0.1-0.9-0.5-1.6-1.2-2.3c-0.8-0.6-1.8-0.9-3-0.9c-1.1,0-2.1,0.3-2.8,0.9c-0.7,0.6-1.1,1.4-1.1,2.5
			c0,0.7,0.2,1.3,0.7,1.8s1,0.8,1.7,1.1s1.6,0.6,2.8,0.9c1.6,0.4,2.9,0.9,3.9,1.3c1,0.4,1.9,1.1,2.6,2s1.1,2.1,1.1,3.7
			c0,1.2-0.3,2.4-1,3.5s-1.6,2-2.9,2.6c-1.3,0.7-2.7,1-4.5,1C278.9,156,277.4,155.8,276.1,155.2"/>
	</g>
	<g>
		<defs>
			<rect id="SVGID_00000112610646871456118900000014590038336487934618_" width="611.5" height="165.1"/>
		</defs>
		<clipPath id="SVGID_00000036248213932209189780000010367638290614323621_">
			<use xlink:href="#SVGID_00000112610646871456118900000014590038336487934618_"  style="overflow:visible;"/>
		</clipPath>
		<path style="clip-path:url(#SVGID_00000036248213932209189780000010367638290614323621_);fill:#2F56A3;" d="M308,150.9h-10.1
			l-1.7,4.9H292l8.6-24.1h4.6l8.6,24.1h-4.2L308,150.9z M306.9,147.7l-3.9-11.2l-3.9,11.2H306.9z"/>
	</g>
	<g>
		<defs>
			<rect id="SVGID_00000124161870007437928940000009599803974636510628_" width="611.5" height="165.1"/>
		</defs>
		<clipPath id="SVGID_00000086671873631037382420000014993928834901442207_">
			<use xlink:href="#SVGID_00000124161870007437928940000009599803974636510628_"  style="overflow:visible;"/>
		</clipPath>
		<polygon style="clip-path:url(#SVGID_00000086671873631037382420000014993928834901442207_);fill:#2F56A3;" points="337.4,155.8 
			333.4,155.8 321.6,137.8 321.6,155.8 317.6,155.8 317.6,131.7 321.6,131.7 333.4,149.6 333.4,131.7 337.4,131.7 		"/>
	</g>
	<g>
		<defs>
			<rect id="SVGID_00000127743460525566432470000009132105140844428163_" width="611.5" height="165.1"/>
		</defs>
		<clipPath id="SVGID_00000069387297859910376220000016503287494423559347_">
			<use xlink:href="#SVGID_00000127743460525566432470000009132105140844428163_"  style="overflow:visible;"/>
		</clipPath>
		<path style="clip-path:url(#SVGID_00000069387297859910376220000016503287494423559347_);fill:#2F56A3;" d="M357.1,150.9H347
			l-1.7,4.9h-4.1l8.6-24.1h4.6l8.6,24.1h-4.2L357.1,150.9z M356,147.7l-3.9-11.2l-3.9,11.2H356z"/>
	</g>
	<g>
		<defs>
			<rect id="SVGID_00000148641364301978326680000001126012808087333552_" width="611.5" height="165.1"/>
		</defs>
		<clipPath id="SVGID_00000124846029029244343420000015110114133974053046_">
			<use xlink:href="#SVGID_00000148641364301978326680000001126012808087333552_"  style="overflow:visible;"/>
		</clipPath>
		<polygon style="clip-path:url(#SVGID_00000124846029029244343420000015110114133974053046_);fill:#2F56A3;" points="384.6,131.7 
			376.6,147.1 376.6,155.8 372.6,155.8 372.6,147.1 364.6,131.7 369,131.7 374.6,143.5 380.2,131.7 		"/>
	</g>
	<g>
		<defs>
			<rect id="SVGID_00000056392857157682836700000017933757234513991345_" width="611.5" height="165.1"/>
		</defs>
		<clipPath id="SVGID_00000069383651711512210700000009865233617362807180_">
			<use xlink:href="#SVGID_00000056392857157682836700000017933757234513991345_"  style="overflow:visible;"/>
		</clipPath>
		<path style="clip-path:url(#SVGID_00000069383651711512210700000009865233617362807180_);fill:#2F56A3;" d="M388.2,128.7
			c-0.4-0.4-0.6-0.9-0.6-1.5s0.2-1.1,0.6-1.5s0.9-0.6,1.5-0.6s1.1,0.2,1.5,0.6s0.6,0.9,0.6,1.5s-0.2,1.1-0.6,1.5s-0.9,0.6-1.5,0.6
			S388.6,129.1,388.2,128.7 M391.6,155.8h-3.9v-24.1h3.9V155.8z"/>
	</g>
	<g>
		<defs>
			<rect id="SVGID_00000168811659599178155950000017299514623919728559_" width="611.5" height="165.1"/>
		</defs>
		<clipPath id="SVGID_00000086660443876172088100000004022161536668446090_">
			<use xlink:href="#SVGID_00000168811659599178155950000017299514623919728559_"  style="overflow:visible;"/>
		</clipPath>
		<polygon style="clip-path:url(#SVGID_00000086660443876172088100000004022161536668446090_);fill:#2F56A3;" points="421.4,131.7 
			421.4,134.9 415,134.9 415,155.8 411,155.8 411,134.9 404.6,134.9 404.6,131.7 		"/>
	</g>
	<g>
		<defs>
			<rect id="SVGID_00000004532119676931697890000013517607036095939222_" width="611.5" height="165.1"/>
		</defs>
		<clipPath id="SVGID_00000143595494079316092050000016196347549164259256_">
			<use xlink:href="#SVGID_00000004532119676931697890000013517607036095939222_"  style="overflow:visible;"/>
		</clipPath>
		<path style="clip-path:url(#SVGID_00000143595494079316092050000016196347549164259256_);fill:#2F56A3;" d="M425.9,128.7
			c-0.4-0.4-0.6-0.9-0.6-1.5s0.2-1.1,0.6-1.5s0.9-0.6,1.5-0.6s1.1,0.2,1.5,0.6s0.6,0.9,0.6,1.5s-0.2,1.1-0.6,1.5s-0.9,0.6-1.5,0.6
			S426.3,129.1,425.9,128.7 M429.3,155.8h-4v-24.1h4V155.8z"/>
	</g>
	<g>
		<defs>
			<rect id="SVGID_00000007426963857932055770000015462300910411221919_" width="611.5" height="165.1"/>
		</defs>
		<clipPath id="SVGID_00000140705439974749245410000014421264581508578952_">
			<use xlink:href="#SVGID_00000007426963857932055770000015462300910411221919_"  style="overflow:visible;"/>
		</clipPath>
		<path style="clip-path:url(#SVGID_00000140705439974749245410000014421264581508578952_);fill:#2F56A3;" d="M434.8,137.4
			c1.1-1.9,2.6-3.3,4.5-4.4c1.9-1.1,3.9-1.6,6.2-1.6c2.6,0,4.8,0.6,6.8,1.9c2,1.3,3.4,3,4.3,5.4h-4.7c-0.6-1.3-1.5-2.2-2.6-2.8
			s-2.4-0.9-3.8-0.9c-1.6,0-3,0.4-4.3,1.1c-1.2,0.7-2.2,1.7-2.9,3.1c-0.7,1.3-1.1,2.9-1.1,4.7s0.4,3.3,1.1,4.7
			c0.7,1.3,1.7,2.4,2.9,3.1c1.2,0.7,2.7,1.1,4.3,1.1c1.5,0,2.7-0.3,3.8-0.9c1.1-0.6,2-1.6,2.6-2.8h4.7c-0.9,2.3-2.3,4.1-4.3,5.3
			s-4.3,1.9-6.8,1.9c-2.3,0-4.3-0.5-6.2-1.6c-1.9-1.1-3.4-2.5-4.5-4.4s-1.6-4-1.6-6.3C433.2,141.3,433.7,139.2,434.8,137.4"/>
	</g>
	<g>
		<defs>
			<rect id="SVGID_00000155850903480200849100000003023432580307598762_" width="611.5" height="165.1"/>
		</defs>
		<clipPath id="SVGID_00000122689611599079665050000008370492092940041396_">
			<use xlink:href="#SVGID_00000155850903480200849100000003023432580307598762_"  style="overflow:visible;"/>
		</clipPath>
		<path style="clip-path:url(#SVGID_00000122689611599079665050000008370492092940041396_);fill:#2F56A3;" d="M475.8,150.9h-10.1
			l-1.7,4.9h-4.1l8.6-24.1h4.6l8.6,24.1h-4.2L475.8,150.9z M474.7,147.7l-3.9-11.2l-3.9,11.2H474.7z"/>
	</g>
	<g>
		<defs>
			<rect id="SVGID_00000014604649392792209370000008605610988332970638_" width="611.5" height="165.1"/>
		</defs>
		<clipPath id="SVGID_00000048475882375177942120000004856391396756889218_">
			<use xlink:href="#SVGID_00000014604649392792209370000008605610988332970638_"  style="overflow:visible;"/>
		</clipPath>
		<path style="clip-path:url(#SVGID_00000048475882375177942120000004856391396756889218_);fill:#2F56A3;" d="M497.9,155.8l-5.5-9.6
			h-3v9.6h-3.9v-24.1h8.3c1.8,0,3.4,0.3,4.7,1c1.3,0.6,2.2,1.5,2.9,2.6c0.6,1.1,1,2.3,1,3.6c0,1.6-0.5,3-1.4,4.3s-2.3,2.2-4.2,2.6
			l6,10L497.9,155.8L497.9,155.8z M489.4,143h4.4c1.5,0,2.6-0.4,3.3-1.1c0.8-0.7,1.1-1.7,1.1-3c0-1.2-0.4-2.2-1.1-2.9
			s-1.9-1.1-3.4-1.1h-4.4v8.1H489.4z"/>
	</g>
	<g>
		<defs>
			<rect id="SVGID_00000116931852141256717980000011013642527837463439_" width="611.5" height="165.1"/>
		</defs>
		<clipPath id="SVGID_00000174597463834429191560000010731560950071597184_">
			<use xlink:href="#SVGID_00000116931852141256717980000011013642527837463439_"  style="overflow:visible;"/>
		</clipPath>
		<polygon style="clip-path:url(#SVGID_00000174597463834429191560000010731560950071597184_);fill:#2F56A3;" points="511.3,134.9 
			511.3,142 519.6,142 519.6,145.2 511.3,145.2 511.3,152.6 520.6,152.6 520.6,155.8 507.3,155.8 507.3,131.7 520.6,131.7 
			520.6,134.9 		"/>
	</g>
	<g>
		<defs>
			<rect id="SVGID_00000071538409147670110340000004115801662678899380_" width="611.5" height="165.1"/>
		</defs>
		<clipPath id="SVGID_00000021827554157377989480000007797012732820821907_">
			<use xlink:href="#SVGID_00000071538409147670110340000004115801662678899380_"  style="overflow:visible;"/>
		</clipPath>
		<polygon style="clip-path:url(#SVGID_00000021827554157377989480000007797012732820821907_);fill:#2F56A3;" points="541,131.7 
			541,134.9 534.6,134.9 534.6,155.8 530.6,155.8 530.6,134.9 524.2,134.9 524.2,131.7 		"/>
	</g>
	<g>
		<defs>
			<rect id="SVGID_00000128462611046497150080000013638199089583671451_" width="611.5" height="165.1"/>
		</defs>
		<clipPath id="SVGID_00000093880683961510202260000010659356430577286568_">
			<use xlink:href="#SVGID_00000128462611046497150080000013638199089583671451_"  style="overflow:visible;"/>
		</clipPath>
		<path style="clip-path:url(#SVGID_00000093880683961510202260000010659356430577286568_);fill:#2F56A3;" d="M568.5,150.9h-10.1
			l-1.7,4.9h-4.1l8.6-24.1h4.6l8.6,24.1h-4.2L568.5,150.9z M567.4,147.7l-3.9-11.2l-3.9,11.2H567.4z"/>
	</g>
	<g>
		<defs>
			<rect id="SVGID_00000053538105520100307220000011548179292360785846_" width="611.5" height="165.1"/>
		</defs>
		<clipPath id="SVGID_00000115507148290540895040000004302908769033428365_">
			<use xlink:href="#SVGID_00000053538105520100307220000011548179292360785846_"  style="overflow:visible;"/>
		</clipPath>
		<path style="clip-path:url(#SVGID_00000115507148290540895040000004302908769033428365_);fill:#2F56A3;" d="M577.9,155.3
			c-0.5-0.5-0.7-1.1-0.7-1.8s0.2-1.3,0.7-1.8s1.1-0.7,1.8-0.7s1.3,0.2,1.8,0.7s0.7,1.1,0.7,1.8s-0.2,1.3-0.7,1.8s-1.1,0.7-1.8,0.7
			S578.4,155.8,577.9,155.3"/>
	</g>
	<g>
		<defs>
			<rect id="SVGID_00000057129292386056152440000010020215973644347808_" width="611.5" height="165.1"/>
		</defs>
		<clipPath id="SVGID_00000038405239794467565140000011147637871345941681_">
			<use xlink:href="#SVGID_00000057129292386056152440000010020215973644347808_"  style="overflow:visible;"/>
		</clipPath>
		<path style="clip-path:url(#SVGID_00000038405239794467565140000011147637871345941681_);fill:#2F56A3;" d="M601.9,152.1
			c-0.5,1-1.3,1.8-2.4,2.5c-1,0.7-2.3,1.1-3.7,1.3v1.7c1.3,0,2.4,0.3,3.3,1c0.8,0.6,1.2,1.5,1.2,2.7s-0.4,2.1-1.2,2.8s-1.9,1-3.2,1
			h-4.6v-2.5h3.8c0.6,0,1.1-0.1,1.5-0.3c0.3-0.2,0.5-0.5,0.5-1s-0.2-0.8-0.5-1s-0.8-0.3-1.5-0.3h-1.9v-4c-2.2-0.2-3.9-0.9-5.3-2.1
			c-1.4-1.2-2-2.8-2-4.7h4.2c0.1,1,0.5,1.9,1.2,2.6c0.7,0.7,1.7,1,3.1,1c1.4,0,2.4-0.3,3.2-1s1.1-1.5,1.1-2.5c0-0.8-0.2-1.5-0.7-2
			s-1.1-0.9-1.8-1.2s-1.7-0.6-2.9-0.9c-1.6-0.4-2.8-0.8-3.8-1.3c-1-0.4-1.8-1.1-2.5-2s-1-2.1-1-3.6c0-1.4,0.3-2.6,1-3.6
			s1.7-1.8,2.9-2.4c1.2-0.6,2.7-0.8,4.3-0.8c2.3,0,4.2,0.6,5.7,1.8s2.3,2.8,2.5,4.8H598c-0.1-0.9-0.5-1.6-1.2-2.3
			c-0.8-0.6-1.8-0.9-3-0.9c-1.1,0-2.1,0.3-2.8,0.9c-0.7,0.6-1.1,1.4-1.1,2.5c0,0.7,0.2,1.3,0.7,1.8s1,0.8,1.7,1.1s1.6,0.6,2.8,0.9
			c1.6,0.4,2.9,0.9,3.9,1.3c1,0.4,1.9,1.1,2.6,2c0.7,0.9,1.1,2.1,1.1,3.7C602.7,150.1,602.5,151.1,601.9,152.1"/>
	</g>
	<g>
		<defs>
			<rect id="SVGID_00000140001270840839883610000010217291152387741334_" width="611.5" height="165.1"/>
		</defs>
		<clipPath id="SVGID_00000044891774570213755160000010475547988928865440_">
			<use xlink:href="#SVGID_00000140001270840839883610000010217291152387741334_"  style="overflow:visible;"/>
		</clipPath>
		<path style="clip-path:url(#SVGID_00000044891774570213755160000010475547988928865440_);fill:#2F56A3;" d="M607.2,155.3
			c-0.5-0.5-0.7-1.1-0.7-1.8s0.2-1.3,0.7-1.8s1.1-0.7,1.8-0.7s1.3,0.2,1.8,0.7s0.7,1.1,0.7,1.8s-0.2,1.3-0.7,1.8s-1.1,0.7-1.8,0.7
			S607.7,155.8,607.2,155.3"/>
	</g>
</g>
<g id="ARC_00000135671116529118361760000017932027485535002499_">
	<path class="st1" d="M0.7,73.9c6.5-8.2,15.4-14.2,25.5-17c0.3-0.1,0.5-0.1,0.8-0.1c1.6,0,2.9,1.3,2.9,2.9c0,0,0,46.8,0,46.8
		c0,2.4-2,4.4-4.4,4.4c0,0-21.1,0-21.1,0c-2.4,0-4.4-2-4.4-4.4c0,0,0-30.8,0-30.8C0.1,75.1,0.3,74.4,0.7,73.9z"/>
</g>
<g id="ARC_00000154416464255340637200000004784296062173988517_">
	<path class="st1" d="M45.6,45.8c6.5-8.2,15.4-14.2,25.5-17c0.3-0.1,0.5-0.1,0.8-0.1c1.6,0,2.9,1.3,2.9,2.9v74.9
		c0,2.4-2,4.4-4.4,4.4c0,0-21.1,0-21.1,0c-2.4,0-4.4-2-4.4-4.4c0,0,0-58.9,0-58.9C45,47,45.2,46.3,45.6,45.8z"/>
</g>
<g id="ARC_00000029751013190452123570000013114765585830108087_">
	<path class="st1" d="M90.5,20C97,11.8,105.9,5.9,116,3c0.3-0.1,0.5-0.1,0.8-0.1c1.6,0,2.9,1.3,2.9,2.9v100.7c0,2.4-2,4.4-4.4,4.4
		c0,0-21.1,0-21.1,0c-2.4,0-4.4-2-4.4-4.4V21.8C89.9,21.2,90.1,20.5,90.5,20z"/>
</g>
<g id="ARC_00000016063545880550279910000016017805953517963704_">
	<path class="st1" d="M611.5,106.6c0,2.4-1.9,4.3-4.3,4.3l-10,0H301.3c-2.4,0-4.3-1.9-4.3-4.3V26.7c0-2.4-1.9-4.3-4.3-4.3h-36.2
		c-2.4,0-4.3,1.9-4.3,4.3v79.9c0,2.4-2,4.4-4.4,4.4h-21.1c-2.4,0-4.4-2-4.4-4.4l0.1-79.9c0-2.4-1.9-4.3-4.3-4.3c0,0,0,0,0,0h-36.2
		c-2.4,0-4.4,2-4.4,4.4v79.8c0,2.4-2,4.4-4.4,4.4h-21.3c-2.4,0-4.4-2-4.4-4.4c0,0,0-102,0-102c0-2.4,2-4.4,4.4-4.4
		c0,0,159.9,0,159.9,0c8.6,0,15.6,7,15.6,15.6c0,0,0,68.7,0,68.7c0,2.4,2,4.4,4.4,4.4c0,0,13.7,0,13.7,0c2.4,0,4.4-2,4.4-4.4V48.9
		c0-2.4,2-4.4,4.4-4.4c0,0,70.1,0,70.1,0c2.4,0,4.3-1.9,4.3-4.3c0,0,0,0,0,0c0,0-0.1-13.5-0.1-13.5c0-2.4-2-4.3-4.3-4.3h-70
		c-2.4,0-4.3-1.9-4.3-4.3c0,0,0-13.5,0-13.5c0,0,0,0,0,0c0-2.4,1.9-4.3,4.3-4.3c0,0,99.8,0,99.8,0c8.6,0,15.6,7,15.6,15.6
		c0,0,0,59.6,0,59.6c0,2.4-1.9,4.3-4.3,4.3c0,0-32.3,0-32.3,0c-2.4,0-4.3-1.9-4.3-4.3V71c0-2.4-1.9-4.3-4.3-4.3h-40.2
		c-2.4,0-4.3,1.9-4.3,4.3v13.7c0,2.4,1.9,4.3,4.3,4.3c0,0,0,0,0,0c0,0,103.5-0.2,103.5-0.2c2.4,0,4.3-1.9,4.3-4.3V10.1
		c0-5.5,4.4-9.9,9.9-9.9h105.7c2.4,0,4.3,1.9,4.3,4.3V18c0,2.4-1.9,4.3-4.3,4.3c0,0-81.1,0-81.1,0c-2.4,0-4.3,1.9-4.3,4.3
		c0,0,0,57.8,0,57.8c0,2.4,1.9,4.3,4.3,4.3h81.1c2.4,0,4.3,1.9,4.3,4.3V106.6z"/>
</g>
</svg>
